<?xml version="1.0" standalone="no"?>
<!DOCTYPE svg PUBLIC "-//W3C//DTD SVG 20010904//EN"
 "http://www.w3.org/TR/2001/REC-SVG-20010904/DTD/svg10.dtd">
<svg version="1.0" xmlns="http://www.w3.org/2000/svg"
 width="900.000000pt" height="900.000000pt" viewBox="0 0 900.000000 900.000000"
 preserveAspectRatio="xMidYMid meet">
<metadata>
Created by potrace 1.11, written by Peter Selinger 2001-2013
</metadata>
<g transform="translate(0.000000,900.000000) scale(0.100000,-0.100000)"
fill="#000000" stroke="none">
<path d="M4298 8595 c-2 -2 -43 -6 -93 -9 -106 -8 -165 -14 -220 -21 -22 -4
-53 -8 -70 -10 -38 -5 -104 -16 -130 -21 -11 -2 -33 -7 -50 -10 -39 -7 -189
-41 -240 -55 -22 -5 -58 -15 -80 -20 -22 -6 -60 -17 -85 -26 -25 -8 -49 -16
-55 -17 -5 -2 -17 -5 -25 -8 -8 -3 -40 -15 -72 -26 -31 -11 -59 -18 -62 -15
-3 4 -6 1 -6 -5 0 -7 -6 -12 -14 -12 -39 0 -493 -210 -538 -248 -10 -8 -18
-12 -18 -7 0 4 -15 -4 -34 -19 -19 -14 -37 -26 -41 -26 -7 0 -254 -159 -271
-175 -6 -5 -22 -17 -35 -25 -34 -23 -257 -202 -313 -251 -72 -65 -254 -246
-311 -310 -47 -53 -83 -95 -153 -179 -41 -50 -167 -222 -180 -247 -7 -12 -18
-27 -24 -35 -7 -7 -19 -25 -27 -40 -8 -15 -22 -36 -32 -47 -10 -10 -16 -21
-13 -24 2 -2 -2 -10 -11 -17 -8 -7 -15 -19 -15 -26 0 -8 -3 -14 -7 -14 -5 0
-13 -10 -19 -23 -6 -12 -24 -44 -39 -72 -15 -27 -43 -78 -61 -113 -18 -35 -38
-70 -44 -78 -7 -8 -10 -14 -6 -14 5 0 -20 -57 -55 -122 -13 -26 -87 -210 -91
-228 -2 -8 -6 -17 -9 -20 -4 -4 -91 -260 -95 -282 -1 -5 -2 -9 -4 -10 -1 -2
-3 -12 -5 -23 -2 -11 -10 -45 -19 -75 -8 -30 -17 -66 -20 -80 -2 -14 -9 -45
-16 -70 -11 -45 -15 -66 -24 -130 -3 -19 -5 -35 -6 -35 -3 0 -19 -100 -26
-165 -3 -25 -7 -61 -10 -80 -25 -194 -25 -680 1 -855 2 -16 7 -52 9 -80 3 -27
8 -63 11 -80 3 -16 7 -43 10 -60 3 -16 7 -41 10 -55 3 -14 8 -43 11 -65 12
-79 95 -392 135 -505 22 -63 41 -119 43 -125 3 -11 9 -26 43 -110 57 -139 153
-341 194 -408 16 -26 29 -54 29 -62 0 -8 5 -15 10 -15 6 0 15 -11 19 -24 16
-42 177 -288 193 -294 4 -2 8 -8 8 -13 0 -9 41 -66 75 -105 6 -6 17 -22 25
-34 8 -12 26 -35 40 -51 14 -16 43 -50 65 -76 52 -62 419 -429 470 -470 22
-18 60 -48 85 -68 25 -20 53 -43 63 -51 9 -8 20 -14 23 -14 2 0 14 -9 25 -19
30 -28 227 -161 238 -161 5 0 11 -4 13 -8 2 -4 37 -27 78 -51 41 -24 91 -53
110 -64 48 -28 259 -137 263 -136 1 1 29 -11 62 -26 71 -32 105 -46 165 -70
25 -9 56 -22 70 -27 32 -13 230 -79 250 -83 8 -2 49 -14 90 -26 41 -11 84 -22
95 -24 11 -1 20 -3 20 -4 0 -3 32 -10 67 -16 15 -2 44 -8 65 -14 21 -5 72 -15
113 -21 41 -6 86 -14 100 -17 14 -2 42 -6 63 -8 21 -2 53 -6 70 -9 41 -6 184
-17 267 -21 36 -1 70 -4 75 -5 6 -1 12 -2 15 -1 3 1 88 4 190 7 188 4 204 5
320 18 103 11 133 15 160 21 13 2 42 7 65 10 74 11 100 15 130 22 17 4 32 7
35 8 3 1 21 5 40 9 110 23 209 48 235 59 17 6 35 12 40 12 8 1 36 9 105 30 3
1 12 4 20 7 8 3 38 13 65 23 28 9 59 20 70 25 11 5 56 22 100 40 85 33 105 42
200 86 33 15 63 27 68 26 4 -1 7 2 7 8 0 5 9 10 20 10 11 0 20 4 20 8 0 4 26
20 58 35 31 15 64 32 72 37 8 5 56 33 105 62 50 29 92 56 93 60 2 5 8 8 12 8
8 0 67 36 95 57 6 5 24 17 40 27 17 11 35 24 42 30 30 27 43 36 48 36 6 0 147
111 209 165 6 6 41 36 78 68 83 71 255 243 323 321 28 32 55 64 62 70 23 25
109 132 149 186 87 117 123 169 190 276 38 60 75 119 81 130 7 10 20 35 30 54
9 19 19 37 23 40 10 10 110 215 110 228 0 6 5 12 10 12 6 0 10 5 10 10 0 6 8
29 19 53 10 23 28 65 40 94 11 28 26 64 33 80 6 15 12 33 14 38 2 6 24 71 49
145 25 74 48 148 51 164 3 16 7 33 10 38 3 4 7 16 9 25 1 10 11 47 20 83 9 36
19 74 21 85 2 11 9 45 15 75 6 30 12 65 14 77 2 13 7 42 11 65 4 24 9 52 10
63 5 37 14 110 19 141 25 177 26 649 1 854 -3 19 -7 62 -11 95 -4 32 -8 62
-10 65 -1 3 -6 29 -9 59 -7 56 -30 178 -46 241 -5 19 -11 46 -13 60 -12 68
-117 407 -147 475 -5 11 -28 67 -51 125 -24 58 -51 120 -61 138 -10 18 -18 39
-18 47 0 8 -4 15 -10 15 -5 0 -10 9 -10 19 0 11 -3 21 -7 23 -5 2 -19 26 -32
53 -63 128 -227 394 -317 514 -177 235 -360 439 -534 596 -124 111 -135 121
-180 155 -24 19 -53 43 -65 53 -49 44 -276 199 -402 275 -119 71 -335 184
-468 243 -233 105 -639 229 -829 254 -21 3 -42 7 -46 10 -4 3 -27 7 -51 10
-73 10 -102 13 -154 19 -27 4 -62 9 -76 12 -59 12 -620 28 -631 19z m512 -599
c58 -3 116 -8 130 -11 14 -3 43 -7 65 -10 22 -3 47 -6 55 -8 17 -4 77 -17 100
-21 72 -14 108 -22 190 -43 123 -32 341 -102 358 -115 6 -6 12 -8 12 -4 0 4
13 0 29 -8 16 -9 31 -12 35 -9 3 4 6 1 6 -5 0 -7 7 -12 15 -12 14 0 148 -60
235 -105 25 -13 70 -36 100 -52 30 -15 57 -31 58 -35 2 -5 9 -8 16 -8 7 0 30
-13 52 -30 21 -16 42 -30 47 -30 25 -1 329 -227 413 -307 19 -18 37 -33 40
-33 9 0 260 -256 316 -320 25 -30 54 -65 65 -77 10 -12 27 -34 38 -49 11 -15
25 -32 31 -38 5 -6 39 -54 75 -106 35 -52 67 -97 70 -100 18 -16 192 -320 183
-320 -3 0 4 -13 15 -29 12 -16 21 -32 21 -36 0 -4 16 -41 35 -81 30 -64 103
-250 110 -279 1 -5 5 -17 8 -25 11 -28 49 -155 53 -180 3 -14 9 -36 14 -50 5
-14 11 -36 14 -50 2 -14 9 -45 15 -70 5 -25 12 -58 15 -75 21 -115 26 -144 30
-175 3 -19 5 -35 6 -35 1 0 3 -13 5 -30 2 -16 6 -50 10 -75 9 -57 14 -650 5
-650 -3 0 -6 -10 -6 -22 -1 -29 -13 -145 -19 -178 -2 -14 -7 -41 -9 -60 -3
-19 -7 -45 -10 -56 -2 -12 -7 -37 -10 -55 -3 -19 -15 -72 -26 -119 -12 -47
-26 -103 -31 -125 -5 -22 -12 -47 -15 -55 -3 -8 -6 -17 -6 -20 0 -6 -46 -138
-57 -165 -5 -11 -23 -58 -41 -105 -51 -130 -159 -349 -245 -495 -35 -60 -166
-254 -209 -310 -185 -240 -486 -539 -659 -655 -20 -14 -37 -28 -37 -32 0 -5
-7 -8 -15 -8 -8 0 -15 -4 -15 -8 0 -4 -15 -16 -32 -27 -18 -10 -35 -21 -38
-25 -6 -7 -147 -96 -211 -133 -47 -27 -290 -151 -299 -152 -3 -1 -25 -10 -50
-22 -117 -55 -247 -102 -415 -152 -103 -30 -142 -34 -137 -11 11 46 13 58 17
85 3 17 7 41 10 55 13 62 16 78 20 130 3 30 7 73 10 95 2 22 6 72 9 110 9 139
120 409 245 594 101 151 111 166 111 179 0 6 4 12 8 12 7 0 36 97 49 160 12
60 18 142 16 245 -8 471 -8 476 17 575 5 19 11 46 13 60 3 14 13 51 22 84 9
32 19 66 20 75 2 9 4 16 5 16 1 0 3 7 5 15 13 60 97 293 133 370 19 41 73 133
82 140 4 3 9 10 11 15 2 6 30 50 62 98 32 49 67 105 78 125 11 20 34 60 50 87
17 28 33 58 36 68 3 9 9 17 14 17 5 0 9 7 9 15 0 8 3 15 8 15 4 0 16 18 26 40
11 22 23 40 28 40 4 0 8 5 8 11 0 6 28 50 62 97 92 127 225 257 338 327 52 33
97 63 98 67 2 4 8 8 13 8 6 0 35 26 65 58 57 58 114 149 132 212 11 34 25 125
23 145 -12 146 -31 212 -76 258 -33 34 -38 36 -78 29 -74 -12 -128 -8 -142 11
-7 9 -17 17 -24 17 -6 0 -11 4 -11 8 0 7 -52 42 -63 42 -4 0 -16 -36 -18 -57
-2 -18 -43 -89 -58 -100 -9 -7 -26 -13 -38 -13 -30 0 -29 19 1 109 13 38 21
72 18 75 -3 4 0 6 6 6 7 0 11 3 10 8 -2 4 5 32 15 62 30 94 45 182 42 250 -5
107 -16 150 -108 408 -7 17 -15 32 -19 32 -5 0 -8 5 -8 10 0 19 -53 90 -66 90
-13 0 -53 -19 -64 -30 -3 -3 -41 -34 -85 -69 -44 -36 -81 -68 -83 -73 -2 -4
-8 -8 -13 -8 -6 0 -20 -10 -33 -22 -13 -13 -32 -30 -42 -38 -44 -35 -129 -106
-142 -117 -7 -7 -34 -29 -60 -50 -26 -21 -49 -40 -52 -43 -14 -14 -163 -129
-300 -231 -178 -133 -341 -244 -420 -285 -30 -16 -57 -32 -60 -35 -11 -13 -84
-31 -123 -31 -23 0 -71 3 -107 7 -78 8 -138 9 -165 3 -65 -15 -145 -42 -145
-49 0 -5 -7 -9 -15 -9 -21 0 -156 -72 -333 -178 -85 -51 -155 -92 -157 -92 -1
0 -32 -17 -66 -38 -88 -53 -152 -81 -217 -96 -13 -3 -31 -7 -40 -10 -25 -7
-143 -23 -242 -31 -30 -3 -75 -8 -100 -11 -25 -3 -61 -7 -80 -9 -59 -7 -114
-15 -135 -20 -89 -21 -110 -27 -135 -40 -15 -8 -30 -12 -32 -9 -3 2 -11 -2
-18 -11 -7 -8 -17 -15 -22 -15 -11 0 -94 -55 -122 -82 -24 -21 -31 -99 -14
-143 14 -36 67 -120 98 -155 97 -112 204 -229 280 -305 17 -16 30 -37 30 -46
0 -14 -40 -89 -114 -212 -10 -18 -30 -52 -43 -77 -13 -25 -28 -52 -33 -60 -5
-8 -36 -74 -68 -146 -73 -161 -128 -246 -305 -464 -7 -8 -28 -37 -47 -65 -19
-27 -37 -52 -40 -55 -7 -6 -170 -271 -201 -325 -56 -99 -103 -189 -160 -302
-35 -70 -78 -139 -100 -162 -41 -42 -152 -121 -169 -121 -6 0 -13 -7 -16 -15
-4 -8 -10 -15 -15 -15 -5 0 -26 -10 -47 -23 -117 -74 -182 -98 -182 -68 0 4
-22 36 -50 72 -27 35 -50 69 -50 76 0 6 -4 13 -9 15 -9 3 -101 144 -101 155 0
3 -6 14 -14 22 -19 22 -121 218 -168 326 -22 50 -48 106 -56 125 -9 19 -16 37
-17 40 -4 13 -17 47 -24 60 -4 8 -22 62 -40 120 -19 58 -36 112 -39 120 -3 8
-6 20 -7 25 -2 6 -7 28 -13 50 -6 22 -13 51 -16 65 -3 14 -16 77 -29 140 -14
63 -28 135 -31 160 -4 25 -9 56 -11 70 -16 101 -29 717 -16 744 2 5 6 30 7 55
1 25 5 62 8 81 3 19 8 50 10 68 3 18 8 52 11 75 4 23 8 44 10 47 2 3 6 23 9
45 8 49 85 346 94 360 4 5 8 17 10 25 3 18 7 29 16 55 59 157 55 148 121 295
102 227 229 443 369 629 23 29 50 66 61 81 74 101 333 368 460 475 44 37 89
74 100 84 92 78 319 229 460 306 178 98 444 215 545 240 3 1 12 4 20 8 21 8
119 38 133 41 7 2 38 10 69 20 32 10 68 18 81 20 12 1 28 5 34 9 5 3 25 8 44
11 19 2 52 9 74 14 37 10 100 20 170 28 17 1 30 3 30 4 0 4 48 10 119 14 43 3
80 7 82 8 5 5 460 1 564 -6z"/>
</g>
</svg>
